<svg xmlns="http://www.w3.org/2000/svg" width="24.012" height="24" viewBox="0 0 24.012 24">
  <g id="Icon_ionic-ios-link" data-name="Icon ionic-ios-link" transform="translate(-3.375 -3.375)">
    <path id="路径_321" data-name="路径 321" d="M16.76,22.015l-.069.006a.955.955,0,0,0-.554.26L12.41,26.007a4.2,4.2,0,0,1-5.942-5.942l3.958-3.958a4.177,4.177,0,0,1,.658-.537,4.241,4.241,0,0,1,.854-.433,4.039,4.039,0,0,1,.865-.213,4.091,4.091,0,0,1,.588-.04c.081,0,.162.006.265.012a4.19,4.19,0,0,1,2.7,1.212,4.137,4.137,0,0,1,.987,1.575.908.908,0,0,0,1.113.583c.006,0,.012-.006.017-.006s.012,0,.012-.006a.9.9,0,0,0,.606-1.1,5.228,5.228,0,0,0-1.419-2.365,6.073,6.073,0,0,0-3.323-1.69c-.11-.017-.219-.035-.329-.046a5.954,5.954,0,0,0-.64-.035c-.15,0-.3.006-.444.017a5.819,5.819,0,0,0-.935.144c-.063.012-.121.029-.185.046a6,6,0,0,0-1.125.421,5.926,5.926,0,0,0-1.6,1.148L5.135,18.749a6.086,6.086,0,0,0-1.76,4.3,6.066,6.066,0,0,0,10.35,4.287l3.767-3.767A.913.913,0,0,0,16.76,22.015Z" transform="translate(0 -1.73)" fill="#68dfbb"/>
    <path id="路径_322" data-name="路径 322" d="M27.415,5.146a6.08,6.08,0,0,0-8.579,0L15.162,8.821a.927.927,0,0,0,.583,1.581.937.937,0,0,0,.733-.265l3.681-3.669A4.2,4.2,0,0,1,26.1,12.41l-3.958,3.958a4.177,4.177,0,0,1-.658.537,4.241,4.241,0,0,1-.854.433,4.04,4.04,0,0,1-.865.213,4.091,4.091,0,0,1-.588.04c-.081,0-.167-.006-.265-.012A4.146,4.146,0,0,1,15.265,14.9a.922.922,0,0,0-1.1-.565.932.932,0,0,0-.652,1.183,5.27,5.27,0,0,0,1.367,2.163h0l.012.012a6.074,6.074,0,0,0,3.652,1.737,5.954,5.954,0,0,0,.64.035q.225,0,.45-.017a6.6,6.6,0,0,0,1.113-.185,6,6,0,0,0,1.125-.421,5.926,5.926,0,0,0,1.6-1.148l3.958-3.958a6.073,6.073,0,0,0-.012-8.585Z" transform="translate(-1.812)" fill="#68dfbb"/>
  </g>
</svg>
